<svg xmlns="http://www.w3.org/2000/svg" xmlns:xlink="http://www.w3.org/1999/xlink" width="32px" height="32px" viewbox="0 0 32 32" version="1.1"><g stroke="none" stroke-width="1" fill="none" fill-rule="evenodd"><g transform="translate(-4.000000, -2.000000)" fill-rule="nonzero" fill="#000"><g  transform="translate(4.000000, 2.000000)"><path d="M14.613 11.413L17.246 14H9.98A1.98 1.98 0 0 0 8 15.98v.04A1.98 1.98 0 0 0 9.98 18h6.963l-.042.26-2.227 2.248a2.091 2.091 0 0 0-.293 2.657 1.973 1.973 0 0 0 3.022.255l6.016-6.074a2.017 2.017 0 0 0 0-2.833l-6-5.934a1.97 1.97 0 0 0-2.806 0 2.016 2.016 0 0 0 0 2.834z" /><path d="M0 16c0 8.837 7.163 16 16 16s16-7.163 16-16S24.837 0 16 0 0 7.163 0 16zm28 0c0 6.627-5.373 12-12 12S4 22.627 4 16 9.373 4 16 4c6.624.007 11.993 5.376 12 12z"/></g></g></g></svg> 