<svg xmlns="http://www.w3.org/2000/svg" viewbox="0 0 512 512"><path d="M295 171.624v-5.191A14.733 14.733 0 0 0 280.559 152H231.441A14.733 14.733 0 0 0 217 166.433v5.191a220.711 220.711 0 0 1 78 0zM243 118.534V138h26V118.534a45.015 45.015 0 0 1-26 0z"/><circle cx="256" cy="73.92" r="32.532"/><path d="M386.175,231.993a186.385,186.385,0,0,0-85.431-44.817,6.967,6.967,0,0,1-1.282-.282,201.46,201.46,0,0,0-86.924-.01,6.866,6.866,0,0,1-1.282.268,186.437,186.437,0,0,0-85.431,44.842C93.088,262.373,74.308,302,72.444,345H439.556C437.692,302,418.912,262.372,386.175,231.993Z"/><rect width="296" height="34" x="108" y="398"/><rect width="416" height="25" x="48" y="359"/><rect width="416" height="25" x="48" y="446"/></svg>