<svg width="32px" height="32px" viewbox="0 0 32 32.000001" id="svg2" version="1.1" ><g id="layer1" transform="translate(0,-1020.3622)"><path style="font-style:normal;font-variant:normal;font-weight:normal;font-stretch:normal;font-size:medium;line-height:normal;font-family:sans-serif;text-indent:0;text-align:start;text-decoration:none;text-decoration-line:none;text-decoration-style:solid;text-decoration-color:#000000;letter-spacing:normal;word-spacing:normal;text-transform:none;direction:ltr;block-progression:tb;writing-mode:lr-tb;baseline-shift:baseline;text-anchor:start;white-space:normal;clip-rule:nonzero;display:inline;overflow:visible;visibility:visible;opacity:1;isolation:auto;mix-blend-mode:normal;color-interpolation:sRGB;color-interpolation-filters:linearRGB;solid-color:#000000;solid-opacity:1;fill-opacity:1;fill-rule:nonzero;stroke:none;stroke-width:0.99999994;stroke-linecap:round;stroke-linejoin:round;stroke-miterlimit:4;stroke-dasharray:none;stroke-dashoffset:1.29999995;stroke-opacity:1;color-rendering:auto;image-rendering:auto;shape-rendering:auto;text-rendering:auto;enable-background:accumulate" d="M 15.957031 6.4980469 L 15.957031 6.5 A 0.50005006 0.50005006 0 0 0 15.685547 6.5996094 L 13.179688 8.4804688 L 9.0039062 8.4804688 L 8.5039062 8.4804688 L 8.5039062 8.9804688 L 8.5039062 11.984375 L 6.796875 13.263672 A 0.50005006 0.50005006 0 0 0 6.515625 13.890625 A 0.50004997 0.50004997 0 0 0 6.5039062 14.007812 L 6.5039062 25 A 0.50005 0.50005 0 0 0 6.5039062 25.001953 A 0.50004997 0.50004997 0 0 0 6.5058594 25.048828 A 0.50005 0.50005 0 0 0 6.5058594 25.050781 A 0.50004997 0.50004997 0 0 0 6.5136719 25.097656 A 0.50005 0.50005 0 0 0 6.5136719 25.099609 A 0.50004997 0.50004997 0 0 0 6.5253906 25.146484 A 0.50005 0.50005 0 0 0 6.5253906 25.148438 A 0.50004997 0.50004997 0 0 0 6.5429688 25.193359 A 0.50005 0.50005 0 0 0 6.5429688 25.195312 A 0.50004997 0.50004997 0 0 0 6.5644531 25.238281 A 0.50005 0.50005 0 0 0 6.5644531 25.240234 A 0.50004997 0.50004997 0 0 0 6.5917969 25.28125 A 0.50005 0.50005 0 0 0 6.5917969 25.283203 A 0.50004997 0.50004997 0 0 0 6.6210938 25.320312 A 0.50005 0.50005 0 0 0 6.6210938 25.322266 A 0.50004997 0.50004997 0 0 0 6.65625 25.357422 A 0.50005 0.50005 0 0 0 7.0039062 25.5 A 0.50005 0.50005 0 0 0 7.0195312 25.5 L 24.898438 25.5 A 0.50005 0.50005 0 0 0 25.503906 24.935547 L 25.503906 14.007812 A 0.50004997 0.50004997 0 0 0 25.466797 13.8125 A 0.50004997 0.50004997 0 0 0 25.466797 13.810547 A 0.50005006 0.50005006 0 0 0 25.21875 13.283203 L 23.503906 12 L 23.503906 8.9785156 L 23.503906 8.4804688 L 23.039062 8.4804688 A 0.50005006 0.50005006 0 0 0 23.003906 8.4785156 L 18.798828 8.4785156 L 16.285156 6.5976562 A 0.50005006 0.50005006 0 0 0 15.957031 6.4980469 z M 15.988281 7.625 L 17.130859 8.4804688 L 14.847656 8.4804688 L 15.988281 7.625 z M 9.5039062 9.4804688 L 13.345703 9.4804688 L 18.611328 9.4804688 L 22.503906 9.4804688 L 22.503906 12.251953 L 22.503906 14.673828 L 22.466797 14.697266 L 22.4375 14.714844 L 15.986328 18.744141 L 9.5039062 14.703125 L 9.5039062 12.248047 A 0.50005006 0.50005006 0 0 0 9.5039062 12.234375 L 9.5039062 9.4804688 z M 18.017578 11.269531 A 0.50005 0.50005 0 0 0 17.96875 11.271484 A 0.50005 0.50005 0 0 0 17.628906 11.431641 L 14.720703 14.501953 L 13.357422 13.128906 A 0.50005 0.50005 0 0 0 12.998047 12.976562 A 0.50005 0.50005 0 0 0 12.648438 13.833984 L 14.310547 15.505859 A 0.50013749 0.50013749 0 0 0 14.875 15.701172 A 0.50005 0.50005 0 0 0 14.904297 15.691406 A 0.50013749 0.50013749 0 0 0 14.921875 15.683594 A 0.50005 0.50005 0 0 0 14.949219 15.671875 A 0.50013749 0.50013749 0 0 0 14.966797 15.662109 A 0.50005 0.50005 0 0 0 15.126953 15.527344 L 18.355469 12.119141 A 0.50005 0.50005 0 0 0 18.017578 11.269531 z M 8.5039062 13.236328 L 8.5039062 14.080078 L 7.8886719 13.697266 L 8.5039062 13.236328 z M 23.503906 13.25 L 24.085938 13.685547 L 24 13.738281 L 23.503906 14.048828 L 23.503906 13.25 z M 24.503906 14.601562 L 24.503906 24.074219 L 19.287109 20.587891 A 0.50005 0.50005 0 0 0 19.003906 20.498047 L 19.003906 20.5 A 0.50005 0.50005 0 0 0 18.730469 21.419922 L 23.34375 24.5 L 8.6542969 24.5 L 13.273438 21.419922 A 0.50005 0.50005 0 0 0 12.986328 20.5 A 0.50005 0.50005 0 0 0 12.71875 20.587891 L 7.5039062 24.066406 L 7.5039062 14.634766 L 8.5039062 15.257812 L 8.7402344 15.404297 L 15.634766 19.703125 L 15.71875 19.755859 L 15.755859 19.779297 A 0.50005006 0.50005006 0 0 0 15.757812 19.779297 A 0.50005006 0.50005006 0 0 0 15.8125 19.800781 A 0.50005006 0.50005006 0 0 0 15.908203 19.826172 A 0.50005006 0.50005006 0 0 0 16 19.832031 A 0.50005006 0.50005006 0 0 0 16.007812 19.832031 A 0.50005006 0.50005006 0 0 0 16.025391 19.830078 A 0.50005006 0.50005006 0 0 0 16.048828 19.828125 A 0.50005006 0.50005006 0 0 0 16.058594 19.826172 A 0.50005006 0.50005006 0 0 0 16.107422 19.816406 A 0.50005006 0.50005006 0 0 0 16.154297 19.802734 A 0.50005006 0.50005006 0 0 0 16.193359 19.787109 A 0.50005006 0.50005006 0 0 0 16.201172 19.783203 A 0.50005006 0.50005006 0 0 0 16.208984 19.779297 L 16.21875 19.779297 L 23.503906 15.228516 L 23.503906 15.226562 L 24.503906 14.601562 z " transform="translate(0,1020.3622)" id="path21768-3"/></g></svg>
