<svg xmlns="http://www.w3.org/2000/svg" viewBox="0 0 512 512"><path d="M425.75,406.63h-108a7.5,7.5,0,0,0,0,15h108a7.5,7.5,0,0,0,0-15Zm-153,0h-93a7.5,7.5,0,0,0,0,15h93a7.5,7.5,0,0,0,0-15Zm153,45h-108a7.5,7.5,0,0,0,0,15h108a7.5,7.5,0,0,0,0-15Zm-153,0h-93a7.5,7.5,0,0,0,0,15h93a7.5,7.5,0,0,0,0-15Zm57.48-324.7h-55A20.24,20.24,0,0,0,255,147.15v7.74H236.76a19,19,0,0,0-19,19v93.71a19,19,0,0,0,19,19h132a19,19,0,0,0,19-19V173.9a19,19,0,0,0-19-19H350.46v-7.74A20.24,20.24,0,0,0,330.23,126.93ZM270,147.15a5.23,5.23,0,0,1,5.23-5.22h55a5.23,5.23,0,0,1,5.23,5.22v7.74H270ZM372.76,267.61a4,4,0,0,1-4,4h-132a4,4,0,0,1-4-4V209.54l46.83,23.37v9.64a14.52,14.52,0,0,0,14.5,14.5h17.36a14.52,14.52,0,0,0,14.5-14.5v-9.64l46.83-23.37Zm-78.19-25.56V225.7h16.36v16.35Zm74.17-72.16a4,4,0,0,1,4,4v18.88l-49.18,24.53a14.51,14.51,0,0,0-12.15-6.61H294.07a14.51,14.51,0,0,0-12.15,6.61l-49.18-24.53V173.9a4,4,0,0,1,4-4ZM415.75,45h-226a17.52,17.52,0,0,0-17.5,17.5v25a17.52,17.52,0,0,0,17.5,17.5h226a17.52,17.52,0,0,0,17.5-17.5v-25A17.52,17.52,0,0,0,415.75,45Zm2.5,42.5a2.5,2.5,0,0,1-2.5,2.5h-226a2.5,2.5,0,0,1-2.5-2.5v-25a2.5,2.5,0,0,1,2.5-2.5h226a2.5,2.5,0,0,1,2.5,2.5ZM440.75,0h-276a37.54,37.54,0,0,0-37.5,37.5v65.37H64.12a30.41,30.41,0,0,0-30.37,30.38V454.54a7.16,7.16,0,0,0,.18,1.61,7,7,0,0,0-.18,1.6A54.32,54.32,0,0,0,88,512c.39,0,.78,0,1.16,0a5.83,5.83,0,0,0,.59,0h351a37.54,37.54,0,0,0,37.5-37.5V37.5A37.54,37.54,0,0,0,440.75,0ZM88,497a39.3,39.3,0,0,1-39.25-39.25,7,7,0,0,0-.18-1.6,7.16,7.16,0,0,0,.18-1.61V133.25a15.38,15.38,0,1,1,30.75,0V467a7.5,7.5,0,0,0,15,0V133.25a30.19,30.19,0,0,0-4.19-15.38h36.94V457.75A39.3,39.3,0,0,1,88,497Zm375.25-22.5a22.52,22.52,0,0,1-22.5,22.5H125.39a54.07,54.07,0,0,0,16.86-39.25V37.5A22.52,22.52,0,0,1,164.75,15h276a22.52,22.52,0,0,1,22.5,22.5Zm-37.5-112.87h-246a7.5,7.5,0,0,0,0,15h246a7.5,7.5,0,0,0,0-15Zm0-45h-246a7.5,7.5,0,0,0,0,15h246a7.5,7.5,0,0,0,0-15Z"/></svg>