<svg xmlns="http://www.w3.org/2000/svg" data-name="Layer 1" viewBox="0 0 32 32"><path d="M18.5,4h6a.5.5,0,0,0,0-1h-6a.5.5,0,0,0,0,1Zm6,7h-6a.5.5,0,0,0,0,1h6a.5.5,0,0,0,0-1Zm2-6h-10a.5.5,0,0,0,0,1h10a.5.5,0,0,0,0-1Zm-2,3a.5.5,0,0,0,0-1h-6a.5.5,0,0,0,0,1Zm2,1h-10a.5.5,0,0,0,0,1h10a.5.5,0,0,0,0-1Zm-10,18h-2a.5.5,0,0,0-.5.5v2a.5.5,0,0,0,.5.5h2a.5.5,0,0,0,.5-.5v-2A.5.5,0,0,0,16.5,27ZM16,29H15V28h1Zm8.5-8h-2a.5.5,0,0,0,0,1h2a.5.5,0,0,0,0-1Zm4,6h-2a.5.5,0,0,0-.5.5v2a.5.5,0,0,0,.5.5h2a.5.5,0,0,0,.5-.5v-2A.5.5,0,0,0,28.5,27ZM28,29H27V28h1Zm.5-8h-2a.5.5,0,0,0,0,1h2a.5.5,0,0,0,0-1Zm0,2h-2a.5.5,0,0,0-.5.5v2a.5.5,0,0,0,.5.5h2a.5.5,0,0,0,.5-.5v-2A.5.5,0,0,0,28.5,23ZM28,25H27V24h1Zm1.5-10h-16a.5.5,0,0,0-.5.5v4a.5.5,0,0,0,.5.5h16a.5.5,0,0,0,.5-.5v-4A.5.5,0,0,0,29.5,15ZM29,19H14V16H29ZM16.5,23h-2a.5.5,0,0,0-.5.5v2a.5.5,0,0,0,.5.5h2a.5.5,0,0,0,.5-.5v-2A.5.5,0,0,0,16.5,23ZM16,25H15V24h1ZM30,13.05V.5a.5.5,0,0,0-.5-.5H16.44l-.07,0a.4.4,0,0,0-.22.12l-3,3a.4.4,0,0,0-.12.22s0,0,0,.06,0,0,0,.07V13H11V9.5a.5.5,0,0,0-.5-.5h-6a.5.5,0,0,0-.5.5V13H2.5A2.5,2.5,0,0,0,0,15.5v14A2.5,2.5,0,0,0,2.5,32h27A2.5,2.5,0,0,0,32,29.5v-14A2.5,2.5,0,0,0,30,13.05ZM16,1.71V3H14.71ZM14,4h2.5a.5.5,0,0,0,.5-.5V1H29V13H14ZM5,10h5v3H5Zm.72,7.77L5.08,14H9.91l-.63,3.77a10.57,10.57,0,0,0,0,3.46L9.92,25H5.09l.63-3.77A10.57,10.57,0,0,0,5.72,17.77ZM5,26h5v3H5Zm26,3.5A1.5,1.5,0,0,1,29.5,31H2.5A1.5,1.5,0,0,1,1,29.5v-14A1.5,1.5,0,0,1,2.5,14H4.08l.65,3.94a9.08,9.08,0,0,1,0,3.12L4,25.5v4a.5.5,0,0,0,.5.5h6a.5.5,0,0,0,.5-.5v-4s0,0,0,0v0l-.72-4.36a9.08,9.08,0,0,1,0-3.12L10.92,14H29.5A1.5,1.5,0,0,1,31,15.5ZM20.5,27h-2a.5.5,0,0,0-.5.5v2a.5.5,0,0,0,.5.5h2a.5.5,0,0,0,.5-.5v-2A.5.5,0,0,0,20.5,27ZM20,29H19V28h1Zm.5-6h-2a.5.5,0,0,0-.5.5v2a.5.5,0,0,0,.5.5h2a.5.5,0,0,0,.5-.5v-2A.5.5,0,0,0,20.5,23ZM20,25H19V24h1Zm-3.5-4h-2a.5.5,0,0,0,0,1h2a.5.5,0,0,0,0-1Zm8,6h-2a.5.5,0,0,0-.5.5v2a.5.5,0,0,0,.5.5h2a.5.5,0,0,0,.5-.5v-2A.5.5,0,0,0,24.5,27ZM24,29H23V28h1Zm-3.5-8h-2a.5.5,0,0,0,0,1h2a.5.5,0,0,0,0-1Zm4,2h-2a.5.5,0,0,0-.5.5v2a.5.5,0,0,0,.5.5h2a.5.5,0,0,0,.5-.5v-2A.5.5,0,0,0,24.5,23ZM24,25H23V24h1Z"/></svg>